<svg xmlns="http://www.w3.org/2000/svg" width="64.774" height="34.553" viewBox="0 0 64.774 34.553">
  <g id="Bus" transform="translate(0 0)">
    <path id="Path_431" data-name="Path 431" d="M1.08,30.716H6.585a5.38,5.38,0,0,0,9.608,2.126A5.38,5.38,0,0,0,25.8,30.716H47.609a5.4,5.4,0,0,0,10.58,0h5.506a1.079,1.079,0,0,0,1.079-1.079v-8.2a14,14,0,0,0-.381-3.246L62.035,8.28A4.33,4.33,0,0,0,57.8,4.807H25.5L23.642,1.085a1.08,1.08,0,0,0-.971-.6H7.557a1.08,1.08,0,0,0-.966.6L4.731,4.807H1.08A1.079,1.079,0,0,0,0,5.886v23.75A1.079,1.079,0,0,0,1.08,30.716Zm10.8,2.159a3.239,3.239,0,1,1,3.238-3.239A3.239,3.239,0,0,1,11.875,32.875Zm8.636,0a3.239,3.239,0,1,1,3.239-3.239A3.238,3.238,0,0,1,20.512,32.875Zm32.387,0a3.239,3.239,0,1,1,3.238-3.239A3.239,3.239,0,0,1,52.9,32.875Zm9.392-14.183c.012.05.015.1.026.149H53.978V11.284h6.553ZM8.224,2.647H22l1.079,2.159H7.144ZM2.159,6.966H57.8A2.177,2.177,0,0,1,59.927,8.74l.1.385H2.159Zm49.66,4.318v7.557H45.342V11.284Zm-8.637,0v7.557H36.706V11.284Zm-8.637,0v7.557H28.069V11.284Zm-8.637,0v7.557H19.432V11.284Zm-8.636,0v7.557H10.8V11.284Zm-15.114,0H8.637v7.557H2.159Zm0,14.034H4.319V23.159H2.159V21h60.43c.005.147.026.293.026.439v1.72H60.456v2.159h2.159v3.239H58.189a.285.285,0,0,0-.018-.056,5.34,5.34,0,0,0-.279-.9c-.042-.108-.1-.2-.148-.3a5.586,5.586,0,0,0-.312-.572c-.069-.108-.148-.206-.224-.308a5.567,5.567,0,0,0-.382-.463c-.09-.1-.184-.186-.282-.275a5.106,5.106,0,0,0-.456-.376q-.162-.118-.324-.226a5.748,5.748,0,0,0-.54-.29c-.115-.055-.226-.108-.344-.161a5.359,5.359,0,0,0-.648-.2c-.108-.028-.209-.065-.318-.087a5.119,5.119,0,0,0-2.051,0c-.108.022-.216.058-.318.087a5.383,5.383,0,0,0-.648.2c-.119.047-.23.108-.344.161a5.693,5.693,0,0,0-.54.29q-.162.107-.324.226a5.044,5.044,0,0,0-.456.376c-.1.09-.191.179-.282.275a5.745,5.745,0,0,0-.382.463c-.076.1-.154.2-.223.308a5.5,5.5,0,0,0-.312.572c-.049.1-.108.2-.148.3a5.382,5.382,0,0,0-.28.9.267.267,0,0,1-.017.056H25.8a.285.285,0,0,0-.018-.056,5.422,5.422,0,0,0-.279-.9c-.042-.108-.1-.2-.148-.3a5.586,5.586,0,0,0-.312-.572c-.069-.108-.148-.206-.224-.308a5.655,5.655,0,0,0-.382-.463c-.09-.1-.184-.186-.282-.275a5.105,5.105,0,0,0-.456-.376q-.162-.118-.324-.226a5.686,5.686,0,0,0-.539-.29c-.115-.055-.226-.108-.344-.161a5.3,5.3,0,0,0-.643-.2c-.108-.028-.209-.065-.324-.087a5.024,5.024,0,0,0-2.009,0c-.056.011-.108.018-.167.03a5.381,5.381,0,0,0-.877.273l-.16.07a5.43,5.43,0,0,0-.816.444l-.043.033a5.426,5.426,0,0,0-.695.573c-.035.033-.07.065-.108.1a5.4,5.4,0,0,0-.458.529,5.5,5.5,0,0,0-.47-.54c-.035-.034-.07-.066-.108-.1a5.467,5.467,0,0,0-.7-.573l-.043-.033a5.451,5.451,0,0,0-.816-.444l-.16-.07a5.43,5.43,0,0,0-.878-.273c-.055-.012-.108-.019-.167-.03a5.022,5.022,0,0,0-2.009,0c-.108.022-.216.058-.318.087a5.284,5.284,0,0,0-.648.2c-.119.047-.23.108-.344.161a5.661,5.661,0,0,0-.535.29c-.108.071-.216.147-.324.225a5.11,5.11,0,0,0-.456.376c-.1.09-.191.179-.282.275a5.51,5.51,0,0,0-.382.463c-.076.1-.155.2-.224.307a5.464,5.464,0,0,0-.312.572c-.049.1-.108.2-.148.3a5.315,5.315,0,0,0-.279.9.285.285,0,0,1-.018.056H2.159Zm0,0" transform="translate(0 -0.488)" fill="#30345e"/>
    <path id="Path_432" data-name="Path 432" d="M230.4,202.09H251.99v2.159H230.4Zm0,0" transform="translate(-204.489 -179.419)" fill="#30345e"/>
  </g>
</svg>
