<svg xmlns="http://www.w3.org/2000/svg" width="63.123" height="31.562" viewBox="0 0 63.123 31.562">
  <g id="Convertible" transform="translate(0 -119.999)">
    <g id="Group_176" data-name="Group 176" transform="translate(0 119.999)">
      <g id="Group_175" data-name="Group 175">
        <path id="Path_556" data-name="Path 556" d="M53.454,129.069l-3.5-.584-6.329-6.329A7.316,7.316,0,0,0,38.416,120H35.77a1.052,1.052,0,0,0-.744,1.8l6.621,6.621H30.509v-1.052a3.156,3.156,0,0,0-3.156-3.156h-2.1a1.052,1.052,0,0,0-1.052,1.052v3.156H16.833v-1.052a3.156,3.156,0,0,0-3.156-3.156h-2.1a1.052,1.052,0,0,0-1.052,1.052v3.156H3.156A3.156,3.156,0,0,0,0,131.571v7.364a5.267,5.267,0,0,0,5.26,5.26H6.385a8.409,8.409,0,0,0,16.688,0H39a8.409,8.409,0,0,0,16.688,0h6.385a1.052,1.052,0,0,0,1.052-1.052v-2.661A11.537,11.537,0,0,0,53.454,129.069Zm-40.829-2.757h1.052a1.052,1.052,0,0,1,1.052,1.052v1.052h-2.1ZM2.1,131.571a1.052,1.052,0,0,1,1.052-1.052h2.1v1.052a1.052,1.052,0,0,1-1.052,1.052H2.1Zm12.625,17.885a6.312,6.312,0,1,1,6.312-6.312A6.312,6.312,0,0,1,14.729,149.456Zm9.468-7.364H23.073a8.409,8.409,0,0,0-16.688,0H5.26A3.156,3.156,0,0,1,2.1,138.936v-4.208h2.1a3.156,3.156,0,0,0,3.156-3.156v-1.052H24.2Zm33.666-8.416h.275a9.461,9.461,0,0,1,1.636,2.1H57.863a1.052,1.052,0,0,1,0-2.1ZM38.309,122.1h.105a5.226,5.226,0,0,1,3.719,1.54l4.773,4.772H44.622ZM26.3,126.311h1.052a1.052,1.052,0,0,1,1.052,1.052v1.052H26.3Zm0,15.781V130.519H43.134v5.347A8.426,8.426,0,0,0,39,142.092Zm21.041,7.364a6.312,6.312,0,1,1,6.312-6.312A6.312,6.312,0,0,1,47.342,149.456Zm13.677-7.364H55.686A8.374,8.374,0,0,0,45.238,135v-4.485h4.121l3.747.625a9.514,9.514,0,0,1,2.942,1.009,3.156,3.156,0,0,0,1.815,5.731h2.794a9.527,9.527,0,0,1,.362,2.6Z" transform="translate(0 -119.999)" fill="#30345e"/>
      </g>
    </g>
    <g id="Group_178" data-name="Group 178" transform="translate(28.542 132.648)">
      <g id="Group_177" data-name="Group 177" transform="translate(0 0)">
        <rect id="Rectangle_57" data-name="Rectangle 57" width="4.046" height="1.618" transform="translate(0)" fill="#30345e"/>
      </g>
    </g>
    <g id="Group_180" data-name="Group 180" transform="translate(43.134 138.936)">
      <g id="Group_179" data-name="Group 179">
        <path id="Path_557" data-name="Path 557" d="M332.208,264a4.208,4.208,0,1,0,4.208,4.208A4.208,4.208,0,0,0,332.208,264Zm0,6.312a2.1,2.1,0,1,1,2.1-2.1A2.1,2.1,0,0,1,332.208,270.311Z" transform="translate(-328 -263.999)" fill="#30345e"/>
      </g>
    </g>
    <g id="Group_182" data-name="Group 182" transform="translate(10.521 138.936)">
      <g id="Group_181" data-name="Group 181">
        <path id="Path_558" data-name="Path 558" d="M84.208,264a4.208,4.208,0,1,0,4.208,4.208A4.208,4.208,0,0,0,84.208,264Zm0,6.312a2.1,2.1,0,1,1,2.1-2.1A2.1,2.1,0,0,1,84.208,270.311Z" transform="translate(-80 -263.999)" fill="#30345e"/>
      </g>
    </g>
  </g>
</svg>
