<svg id="Coupe" xmlns="http://www.w3.org/2000/svg" width="64.96" height="25.986" viewBox="0 0 64.96 25.986">
  <path id="Path_433" data-name="Path 433" d="M244.331,86.891H240v2.166h4.33Zm0,0" transform="translate(-206.437 -77.147)" fill="#30345e"/>
  <path id="Path_434" data-name="Path 434" d="M.929,7l7.354-1.05A37.107,37.107,0,0,1,12.451,3.74,36.459,36.459,0,0,1,27.535.492h1.278A36.8,36.8,0,0,1,46.385,4.973L50.1,7a25.582,25.582,0,0,1,12.38,3.356,4.943,4.943,0,0,1,2.484,4.28v6.429a1.083,1.083,0,0,1-1.083,1.083H60.242a6.472,6.472,0,0,1-12.216,0H19.1a6.472,6.472,0,0,1-12.216,0H6.5a1.087,1.087,0,0,1-.4-.077L2.587,20.661A4.094,4.094,0,0,1,0,16.84V8.071A1.083,1.083,0,0,1,.929,7ZM49.89,20.846a4.331,4.331,0,1,0-.088-.866A4.331,4.331,0,0,0,49.89,20.846ZM30.315,19.98H47.638a6.5,6.5,0,1,1,12.992,0h2.165V14.634a2.769,2.769,0,0,0-1.393-2.4,23.408,23.408,0,0,0-11.6-3.08H30.315Zm0-12.992H45.556l-.209-.114A34.618,34.618,0,0,0,30.315,2.7ZM28.149,2.657h-.613A34.266,34.266,0,0,0,14.8,5.1l1.89,1.89H28.149ZM8.749,20.846a4.331,4.331,0,1,0-.088-.866A4.331,4.331,0,0,0,8.749,20.846ZM2.165,10.236H5.413V12.4H2.165V16.84a1.938,1.938,0,0,0,1.226,1.809L6.5,19.9c0-.1.013-.2.019-.3s.009-.216.019-.325.033-.217.05-.325.03-.217.052-.315.053-.208.082-.311.05-.207.082-.307.071-.2.108-.3.07-.2.108-.3.089-.186.134-.278.09-.193.141-.286.108-.172.157-.259.108-.185.17-.274.119-.159.179-.239.127-.174.2-.258.134-.148.2-.217.142-.16.216-.236.148-.136.223-.2.155-.146.237-.217.166-.124.248-.186.165-.128.251-.185.184-.108.277-.169.169-.108.257-.155.2-.1.3-.143.178-.09.27-.129.217-.08.325-.119.179-.07.271-.1c.123-.038.25-.065.376-.1.082-.019.161-.045.244-.063.133-.027.27-.042.4-.062.08-.011.157-.028.237-.036a6.6,6.6,0,0,1,.66-.033,6.5,6.5,0,0,1,6.5,6.5h8.665V9.153H16.24a1.081,1.081,0,0,1-.765-.317L12.667,6.028A34.718,34.718,0,0,0,9.235,7.906a1.086,1.086,0,0,1-.42.154l-6.65.949Zm0,0" transform="translate(0 -0.492)" fill="#30345e"/>
</svg>
