<svg id="Crossover" xmlns="http://www.w3.org/2000/svg" width="60.495" height="27.32" viewBox="0 0 60.495 27.32">
  <path id="Path_441" data-name="Path 441" d="M10.733,27.355A6.83,6.83,0,0,0,17.485,21.5h26.5a6.821,6.821,0,0,0,13.5,0h1.054a.976.976,0,0,0,.958-.787l.975-4.953a.965.965,0,0,0,.006-.344A9.033,9.033,0,0,0,52.31,7.646l-9.3-.892-5.79-3.5A18.467,18.467,0,0,0,26.784.035H22.491A63.835,63.835,0,0,0,11.706.966c-1.156.2-2.113.383-3.015.585l-2.068.46a.976.976,0,0,0-.768.951V4.31L1.561,6.457A2.807,2.807,0,0,0,0,8.983v6.873a2.8,2.8,0,0,0,.827,2l3.1,3.1A6.83,6.83,0,0,0,10.733,27.355Zm0-1.952a4.879,4.879,0,1,1,4.879-4.879A4.878,4.878,0,0,1,10.733,25.4Zm40,0a4.879,4.879,0,1,1,4.879-4.879A4.878,4.878,0,0,1,50.738,25.4Zm1.4-15.818h.009a6.915,6.915,0,0,1,3.338,1.182H54.64v1.951h2.732a7.59,7.59,0,0,1,1.153,2.841l-.784,3.989H57.5c-.011-.075-.029-.149-.043-.223-.017-.093-.032-.184-.052-.275-.027-.125-.061-.248-.1-.37-.025-.085-.046-.171-.073-.255-.042-.129-.09-.253-.14-.379-.028-.072-.054-.147-.085-.219-.063-.145-.133-.286-.2-.425-.025-.048-.046-.1-.072-.145q-.153-.28-.33-.541c-.02-.032-.045-.061-.067-.092a4.979,4.979,0,0,0-.309-.414c-.045-.056-.1-.107-.143-.162-.091-.1-.181-.208-.278-.305-.058-.059-.118-.114-.178-.17-.093-.088-.186-.176-.284-.259-.066-.056-.133-.108-.2-.161q-.147-.116-.293-.223c-.073-.052-.148-.1-.223-.148-.1-.066-.206-.13-.312-.2-.079-.045-.158-.088-.238-.13-.108-.057-.22-.109-.331-.16-.083-.037-.165-.074-.249-.108-.116-.047-.234-.089-.353-.129-.084-.029-.167-.06-.253-.085-.126-.037-.254-.067-.382-.1-.083-.019-.165-.041-.249-.057-.143-.029-.293-.048-.435-.068-.072-.009-.142-.022-.216-.029-.221-.017-.445-.03-.67-.03s-.449.013-.668.034c-.073.007-.143.021-.215.029-.147.019-.293.039-.435.067-.084.017-.166.038-.248.058-.129.03-.257.062-.382.1-.086.025-.169.056-.253.085-.119.04-.237.082-.353.129-.084.034-.166.071-.249.108-.111.05-.223.1-.331.16-.08.042-.159.085-.238.13-.106.061-.21.124-.313.2-.074.048-.148.1-.222.147-.1.071-.2.146-.293.223-.068.053-.135.105-.2.161-.1.083-.2.171-.284.259-.06.056-.12.111-.178.17-.1.1-.187.2-.278.305-.047.055-.1.106-.143.162-.11.135-.214.275-.313.417-.021.031-.043.058-.064.087q-.176.263-.33.543c-.026.047-.047.1-.072.145-.072.139-.142.28-.2.425-.031.072-.056.146-.085.218-.05.126-.1.251-.14.38-.027.084-.049.169-.073.254-.034.123-.067.246-.1.372-.019.09-.035.181-.052.273-.014.074-.032.147-.043.223H28.161l-.44-2.927H41.956V14.671H27.429L26.3,7.117,42.656,8.7ZM26.78,1.987A16.573,16.573,0,0,1,36.171,4.9l2.356,1.423L26,5.117l-.47-3.131Zm-4.293,0h1.064l.441,2.939L14.245,3.99l-.8-1.327a61.549,61.549,0,0,1,9.04-.676ZM1.951,10.768h3.9V8.817H1.975a.858.858,0,0,1,.46-.614L7.266,5.792a.976.976,0,0,0,.539-.878V3.743l1.3-.293C9.8,3.3,10.536,3.151,11.377,3l1.447,2.412a.976.976,0,0,0,.741.468L24.3,6.923l1.16,7.748H18.538v1.952h7.209l.44,2.927H17.493c-.011-.075-.029-.149-.043-.222-.016-.093-.032-.185-.052-.275-.027-.125-.061-.248-.1-.37-.024-.085-.046-.171-.073-.255-.042-.129-.09-.254-.14-.38-.028-.072-.054-.147-.085-.218-.063-.145-.133-.286-.2-.425-.025-.048-.046-.1-.072-.145a6.233,6.233,0,0,0-.33-.542c-.02-.032-.045-.06-.067-.092a4.91,4.91,0,0,0-.309-.413c-.045-.056-.1-.108-.142-.162-.091-.1-.182-.208-.278-.305-.057-.059-.118-.113-.178-.17-.1-.088-.186-.176-.284-.259-.066-.056-.133-.108-.2-.161q-.147-.116-.293-.222c-.073-.052-.147-.1-.222-.149-.1-.066-.206-.13-.313-.2-.079-.045-.158-.088-.238-.13-.108-.057-.22-.109-.331-.16-.083-.037-.165-.074-.249-.108-.116-.047-.234-.089-.353-.129-.084-.029-.167-.06-.253-.085-.126-.037-.254-.067-.381-.1-.083-.019-.165-.041-.249-.058-.143-.028-.293-.048-.435-.068-.072-.009-.142-.022-.215-.029-.222-.018-.445-.031-.67-.031a6.718,6.718,0,0,0-1.006.083c-.066.01-.134.019-.2.031a6.706,6.706,0,0,0-.922.231c-.054.017-.107.039-.161.058a6.9,6.9,0,0,0-.806.346c-.035.019-.073.033-.108.053-.1.054-.2.115-.293.174H1.951v-3.9Zm3.185,5.854a6.689,6.689,0,0,0-.476.792c-.028.056-.055.112-.082.17a6.68,6.68,0,0,0-.358.888v.011l-1.865-1.86Zm0,0" transform="translate(0 -0.035)" fill="#30345e"/>
  <path id="Path_442" data-name="Path 442" d="M422.258,105.6h1.952v1.951h-1.952Zm0,0" transform="translate(-379.326 -94.868)" fill="#30345e"/>
  <path id="Path_443" data-name="Path 443" d="M134.355,86.406h3.9v1.952h-3.9Zm0,0" transform="translate(-120.695 -77.625)" fill="#30345e"/>
  <path id="Path_444" data-name="Path 444" d="M287.9,96h3.9v1.952h-3.9Zm0,0" transform="translate(-258.631 -86.247)" fill="#30345e"/>
  <path id="Path_445" data-name="Path 445" d="M79.7,172.777a2.927,2.927,0,1,0,2.927,2.927A2.927,2.927,0,0,0,79.7,172.777Zm0,3.9a.976.976,0,1,1,.975-.975A.976.976,0,0,1,79.7,176.68Zm0,0" transform="translate(-68.968 -155.214)" fill="#30345e"/>
  <path id="Path_446" data-name="Path 446" d="M473.17,172.777A2.927,2.927,0,1,0,476.1,175.7,2.927,2.927,0,0,0,473.17,172.777Zm0,3.9a.976.976,0,1,1,.975-.975A.976.976,0,0,1,473.17,176.68Zm0,0" transform="translate(-422.432 -155.214)" fill="#30345e"/>
</svg>
