<svg id="Hatch-back" xmlns="http://www.w3.org/2000/svg" width="52.996" height="28.139" viewBox="0 0 52.996 28.139">
  <path id="Path_454" data-name="Path 454" d="M52.113,23.321h-2.72a6.175,6.175,0,0,1-12.224,0H15.828a6.175,6.175,0,0,1-12.277-.5L.257,19.53A.884.884,0,0,1,0,18.905V10.956A.885.885,0,0,1,.193,10.4l3.18-3.975L1.855,3.4a.883.883,0,0,1,.4-1.185.87.87,0,0,1,.3-.088L7.371,1.62,16,.71A36.09,36.09,0,0,1,32.728,2.817a32.673,32.673,0,0,1,8.479,5.114L42.9,9.339,44.1,10l5.57,2.164a.842.842,0,0,1,.1.048A6.183,6.183,0,0,1,53,17.635v4.8A.883.883,0,0,1,52.113,23.321ZM43.28,26.855a4.416,4.416,0,1,0-4.416-4.416A4.416,4.416,0,0,0,43.28,26.855Zm-33.564,0A4.416,4.416,0,1,0,5.3,22.438,4.417,4.417,0,0,0,9.716,26.855ZM1.766,14.489H4.61l.442-1.766H1.766ZM7,3.436,4.01,3.751l1.2,2.394a.883.883,0,0,1-.1.947L2.015,10.956H6.183a.883.883,0,0,1,.883.883.873.873,0,0,1-.026.213l-.883,3.533a.883.883,0,0,1-.857.67H1.767v2.284l2.049,2.049c0-.009.008-.018.01-.027a6.134,6.134,0,0,1,.316-.78c.027-.055.051-.11.079-.165a6.284,6.284,0,0,1,.429-.711c.032-.046.067-.088.1-.133a6.018,6.018,0,0,1,.5-.594c.024-.026.046-.054.072-.079a6.3,6.3,0,0,1,.63-.552c.051-.039.1-.077.153-.114a6.292,6.292,0,0,1,.712-.45c.033-.018.068-.032.1-.049a6.13,6.13,0,0,1,.726-.312c.05-.018.1-.038.147-.055a6.286,6.286,0,0,1,.835-.208c.06-.01.121-.018.176-.027a6.1,6.1,0,0,1,.915-.077c.2,0,.406.012.605.031.066.006.131.019.2.028.133.017.265.034.393.06.077.015.151.035.227.053.115.028.23.055.343.088.079.023.155.05.231.077.107.037.214.074.318.116.076.031.151.065.226.1.1.045.2.088.3.143.073.039.146.078.217.119.1.054.188.111.28.171.07.044.138.088.2.136q.133.1.265.2c.064.049.127.1.188.15.088.073.169.151.251.229.056.052.113.1.167.158.088.088.164.176.245.265l.135.155c.094.115.181.234.265.353.024.036.051.067.075.1q.159.236.3.487c.026.047.047.1.072.147.063.122.125.244.177.371.028.067.052.136.079.2.043.111.088.222.124.337.025.076.045.155.066.232.031.111.061.22.088.332.019.083.033.166.048.251.012.067.029.133.039.2h9.531l-.442-1.766H18.548v-1.76h5.935L22.635,10.63l-11.2-.557a.884.884,0,0,1-.713-.427ZM20.55,2.287c-.207,0-.412-.013-.618-.013a35.7,35.7,0,0,0-3.745.193l-7.249.765L12,8.331l10.19.505Zm19.527,7a30.89,30.89,0,0,0-8.021-4.837A31.311,31.311,0,0,0,22.39,2.363l1.641,6.567,16.605.828ZM51.23,17.635a4.411,4.411,0,0,0-2.254-3.853l-5.431-2.11-19.062-.95,1.821,7.3h9.909v1.766H26.746l.442,1.766H37.16c.01-.068.026-.133.039-.2.015-.088.029-.168.047-.251.025-.112.055-.222.088-.332.021-.078.041-.156.066-.233.037-.115.081-.226.124-.337.028-.069.051-.138.08-.2.055-.126.116-.249.176-.371.025-.049.046-.1.073-.147q.136-.25.3-.487c.024-.035.051-.067.075-.1.088-.121.176-.24.265-.353.043-.053.088-.1.135-.155.081-.088.16-.183.245-.265.054-.055.11-.106.167-.158.082-.078.164-.156.251-.229.061-.052.125-.1.188-.15q.133-.1.265-.2c.067-.047.135-.088.2-.136.088-.059.185-.116.28-.17.072-.041.144-.081.217-.119.1-.05.2-.1.3-.143.075-.035.15-.068.226-.1.1-.042.211-.079.318-.117.077-.026.153-.054.231-.077.113-.034.228-.061.343-.088.076-.018.15-.038.227-.053.129-.026.261-.043.393-.06.065-.009.13-.021.2-.027a4.783,4.783,0,0,1,.606-.037c.2,0,.406.012.605.031.066.006.131.019.2.027.133.017.265.035.393.06.077.015.151.036.227.053.115.027.23.055.343.088.079.023.155.05.231.077.107.037.214.074.318.117.076.031.151.064.226.1.1.045.2.088.3.143.073.039.146.078.217.119.1.054.188.111.28.17.07.044.138.088.2.136q.133.1.265.2c.064.05.127.1.188.15.088.073.169.151.251.229.026.023.052.045.076.069h3.63Zm0,2.154H48.86c.033.07.068.138.1.208s.052.136.079.2c.043.111.088.222.124.337.025.076.045.155.066.232.031.11.061.22.088.332.018.083.032.166.047.251.013.067.029.133.039.2H51.23Zm0,0" transform="translate(0 -0.49)" fill="#30345e"/>
  <path id="Path_455" data-name="Path 455" d="M235.8,123.836h-5.4V126h5.4Zm0,0" transform="translate(-203.57 -112.656)" fill="#30345e"/>
  <path id="Path_456" data-name="Path 456" d="M390.478,123.836H384V126h6.478Zm0,0" transform="translate(-371.94 -112.656)" fill="#30345e"/>
</svg>
