<?xml version="1.0" standalone="no"?>
<!DOCTYPE svg PUBLIC "-//W3C//DTD SVG 20010904//EN"
 "http://www.w3.org/TR/2001/REC-SVG-20010904/DTD/svg10.dtd">
<svg version="1.0" xmlns="http://www.w3.org/2000/svg"
 width="1920.000000pt" height="775.000000pt" viewBox="0 0 1920.000000 775.000000"
 preserveAspectRatio="xMidYMid meet">

<g transform="translate(0.000000,775.000000) scale(0.100000,-0.100000)"
fill="#000000" stroke="none">
<path d="M6085 7741 l-920 -6 -188 -72 c-289 -112 -1405 -562 -2012 -813 -104
-43 -539 -222 -965 -398 -426 -176 -937 -387 -1135 -469 -198 -83 -434 -180
-525 -217 -236 -96 -237 -96 -259 -120 -11 -12 -30 -44 -42 -71 l-22 -50 -7
-960 c-7 -1005 2 -1990 19 -2135 10 -79 14 -90 65 -165 133 -194 312 -337 589
-470 309 -149 760 -266 1192 -310 105 -11 102 -9 109 -69 12 -89 62 -269 106
-374 168 -402 486 -726 885 -900 352 -153 749 -179 1130 -72 399 113 759 391
979 757 92 154 178 384 206 551 l12 72 4307 0 4307 0 12 -72 c35 -229 149
-488 310 -708 76 -103 249 -271 362 -352 198 -141 450 -247 685 -289 91 -17
160 -22 290 -22 239 0 411 32 628 119 108 44 149 65 267 137 314 193 576 524
693 878 30 89 42 136 73 287 l4 22 554 0 c515 0 561 1 654 20 401 80 654 261
734 525 21 69 21 71 15 1001 l-7 932 -36 104 c-66 191 -190 427 -308 588 -386
526 -1030 892 -1831 1039 -270 50 -299 51 -1587 51 l-1208 0 -182 94 c-101 51
-550 278 -998 503 -448 226 -1179 594 -1625 818 -445 224 -892 450 -993 501
l-182 94 -218 10 c-260 13 -2652 19 -3937 11z m1363 -1243 l2 -788 -1480 0
-1480 0 0 634 0 634 73 30 c39 17 185 76 322 132 138 56 275 113 305 126 l55
23 1100 -2 1100 -2 3 -787z m2985 618 c188 -95 648 -327 1022 -516 1029 -519
1750 -883 1754 -886 2 -2 -1191 -4 -2652 -4 l-2657 0 0 790 0 790 1095 0 1096
0 342 -174z m-6393 -872 l0 -534 -1317 0 c-724 0 -1314 2 -1312 4 2 3 180 76
394 164 389 160 1504 617 1750 717 72 30 206 85 300 123 93 39 173 68 177 65
5 -2 8 -245 8 -539z m12670 -996 c445 -37 907 -188 1250 -408 l85 -55 -145 -6
c-201 -9 -303 -42 -437 -143 -118 -89 -215 -242 -248 -390 -14 -61 -16 -139
-13 -516 l3 -445 28 -80 c83 -234 266 -399 502 -451 45 -10 178 -13 538 -14
l477 0 0 -312 c0 -289 -2 -315 -19 -341 -27 -41 -103 -92 -180 -121 -148 -56
-144 -55 -745 -56 -307 -1 -560 1 -563 3 -2 3 -13 49 -24 102 -81 398 -313
763 -639 1006 -99 74 -141 100 -257 158 -755 379 -1674 131 -2147 -579 -115
-172 -208 -400 -243 -592 l-18 -98 -4305 0 -4306 0 -18 93 c-108 541 -477 997
-985 1217 -440 191 -957 178 -1391 -33 -331 -161 -608 -434 -772 -762 -62
-123 -119 -298 -154 -473 -5 -23 -7 -24 -67 -17 -91 9 -345 52 -449 76 -459
102 -811 268 -959 453 l-39 49 0 212 0 212 228 7 c255 8 334 21 437 69 68 33
163 103 213 156 50 55 119 171 141 236 37 114 43 211 39 624 -4 376 -5 388
-29 466 -61 197 -191 348 -376 432 -109 50 -144 55 -405 60 l-248 5 0 135 0
135 8063 -2 c5055 -1 8105 -6 8177 -12z m-15840 -719 c87 -14 143 -47 169
-102 36 -75 44 -177 38 -533 -5 -310 -7 -334 -26 -372 -53 -103 -177 -139
-437 -126 l-144 7 0 568 0 569 168 0 c92 0 196 -5 232 -11z m17477 -206 l163
-6 45 -73 c57 -92 138 -259 170 -354 25 -72 25 -80 25 -385 l0 -312 -142 -6
c-255 -12 -656 -8 -743 8 -141 25 -195 86 -215 240 -12 94 -3 681 11 738 30
117 171 172 419 161 58 -2 178 -7 267 -11z m-2582 -1434 c235 -31 475 -152
662 -332 430 -415 497 -1068 160 -1566 -62 -92 -189 -226 -277 -292 -75 -56
-248 -147 -336 -177 -253 -86 -544 -86 -795 -1 -97 33 -247 114 -341 184 -239
180 -394 426 -465 740 -26 118 -24 367 5 493 95 415 387 749 783 893 114 41
205 60 334 68 121 7 152 6 270 -10z m-11824 -21 c353 -94 639 -327 797 -650
91 -185 125 -328 125 -533 0 -154 -13 -243 -59 -384 -132 -405 -467 -714 -880
-812 -726 -172 -1439 343 -1503 1088 -45 513 249 1010 722 1222 173 78 299
101 522 97 154 -3 194 -7 276 -28z"/>
<path d="M8854 4640 c-68 -38 -104 -106 -104 -192 0 -96 36 -159 115 -201 40
-22 43 -22 715 -22 671 0 675 0 715 21 50 27 69 48 94 104 51 112 2 253 -103
301 -39 17 -81 19 -711 19 l-670 0 -51 -30z"/>
<path d="M6426 2948 c-51 -14 -121 -84 -135 -134 -35 -126 15 -244 121 -288
34 -14 363 -16 3198 -16 2833 0 3164 2 3198 16 163 68 177 317 22 404 l-45 25
-3160 1 c-2157 2 -3172 -1 -3199 -8z"/>
<path d="M15490 2440 c-195 -19 -340 -88 -467 -223 -221 -237 -265 -628 -105
-931 46 -86 154 -203 236 -254 132 -83 253 -115 436 -114 320 2 571 168 684
454 118 299 48 661 -168 872 -153 149 -371 218 -616 196z m241 -486 c175 -99
209 -356 65 -499 -63 -64 -121 -85 -226 -85 -66 0 -86 4 -139 31 -112 56 -168
163 -159 303 6 86 35 152 91 206 60 59 124 81 228 77 73 -3 93 -7 140 -33z"/>
<path d="M3545 2439 c-171 -16 -323 -87 -440 -204 -148 -149 -215 -324 -215
-558 1 -234 68 -404 220 -557 136 -137 307 -202 530 -202 228 0 395 65 537
208 70 71 90 100 132 186 64 133 85 229 84 378 -1 142 -25 239 -88 366 -138
275 -416 415 -760 383z m204 -465 c74 -22 151 -98 181 -179 55 -150 -8 -325
-144 -398 -35 -19 -57 -22 -146 -22 -96 0 -109 2 -150 27 -108 64 -155 148
-155 278 0 73 4 93 28 142 34 70 103 133 166 152 62 19 156 19 220 0z"/>
</g>
</svg>
