<svg xmlns="http://www.w3.org/2000/svg" width="56.336" height="30.892" viewBox="0 0 56.336 30.892">
  <g id="Mini-van" transform="translate(0 -112.008)">
    <g id="Group_185" data-name="Group 185" transform="translate(0 112.008)">
      <g id="Group_184" data-name="Group 184" transform="translate(0 0)">
        <path id="Path_563" data-name="Path 563" d="M55.626,126.568l-14.943-3.332-7.216-10.824a.909.909,0,0,0-.756-.4H5.452a.909.909,0,0,0-.839.559L.07,123.465a.907.907,0,0,0-.063.313c0,.013-.007.024-.007.036v12.727a.909.909,0,0,0,.909.909H2.8a6.352,6.352,0,0,0,12.576,0H40.962a6.352,6.352,0,0,0,12.576,0h1.89a.909.909,0,0,0,.909-.909v-9.087A.909.909,0,0,0,55.626,126.568ZM34.043,116.551l4.24,6.361H22.716v-6.361ZM6.058,113.825H32.225l.605.909H5.679Zm3.029,27.26a4.543,4.543,0,1,1,4.543-4.543A4.543,4.543,0,0,1,9.087,141.085ZM20.9,135.633H15.374a6.352,6.352,0,0,0-12.576,0H1.817v-10.9H20.9Zm0-12.721H2.272l2.651-6.361H20.9ZM47.25,141.085a4.543,4.543,0,1,1,4.543-4.543A4.543,4.543,0,0,1,47.25,141.085Zm7.269-5.452h-.981a6.352,6.352,0,0,0-12.576,0H22.716v-10.9h16.31l15.493,3.453Z" transform="translate(0 -112.008)" fill="#30345e"/>
        <path id="Path_564" data-name="Path 564" d="M58.726,304.008a2.726,2.726,0,1,0,2.726,2.726A2.726,2.726,0,0,0,58.726,304.008Zm0,3.635a.909.909,0,1,1,.909-.909A.909.909,0,0,1,58.726,307.643Z" transform="translate(-49.639 -282.2)" fill="#30345e"/>
        <path id="Path_565" data-name="Path 565" d="M394.726,304.008a2.726,2.726,0,1,0,2.726,2.726A2.726,2.726,0,0,0,394.726,304.008Zm0,3.635a.909.909,0,1,1,.909-.909A.909.909,0,0,1,394.726,307.643Z" transform="translate(-347.476 -282.2)" fill="#30345e"/>
        <path id="Path_566" data-name="Path 566" d="M212.543,240.008h-3.635a.909.909,0,1,0,0,1.817h3.635a.909.909,0,1,0,0-1.817Z" transform="translate(-184.375 -225.47)" fill="#30345e"/>
        <path id="Path_567" data-name="Path 567" d="M24.909,233.825h4.543a.909.909,0,0,0,0-1.817H24.909a.909.909,0,1,0,0,1.817Z" transform="translate(-21.274 -218.378)" fill="#30345e"/>
      </g>
    </g>
  </g>
</svg>
