<svg xmlns="http://www.w3.org/2000/svg" width="18" height="18" viewBox="0 0 18 18" fill="none">
<path d="M14.475 5.93999V9.80251C14.475 12.1125 13.155 13.1025 11.175 13.1025H4.58248C4.24498 13.1025 3.92248 13.0725 3.62248 13.005C3.43498 12.975 3.25499 12.9225 3.08999 12.8625C1.96499 12.4425 1.28249 11.4675 1.28249 9.80251V5.93999C1.28249 3.62999 2.60248 2.64001 4.58248 2.64001H11.175C12.855 2.64001 14.0625 3.35251 14.385 4.98001C14.4375 5.28001 14.475 5.58749 14.475 5.93999Z" stroke="#30345E" stroke-width="1.2" stroke-miterlimit="10" stroke-linecap="round" stroke-linejoin="round"/>
<path d="M16.7258 8.19008V12.0526C16.7258 14.3626 15.4058 15.3526 13.4258 15.3526H6.83331C6.27831 15.3526 5.77581 15.2776 5.34081 15.1126C4.44831 14.7826 3.84081 14.1001 3.62331 13.0051C3.92331 13.0726 4.24581 13.1026 4.58331 13.1026H11.1758C13.1558 13.1026 14.4758 12.1126 14.4758 9.8026V5.94008C14.4758 5.58758 14.4458 5.2726 14.3858 4.9801C15.8108 5.2801 16.7258 6.28508 16.7258 8.19008Z" stroke="#30345E" stroke-width="1.2" stroke-miterlimit="10" stroke-linecap="round" stroke-linejoin="round"/>
<path d="M7.87383 9.85492C8.96735 9.85492 9.85384 8.96843 9.85384 7.87491C9.85384 6.78138 8.96735 5.8949 7.87383 5.8949C6.7803 5.8949 5.89381 6.78138 5.89381 7.87491C5.89381 8.96843 6.7803 9.85492 7.87383 9.85492Z" stroke="#30345E" stroke-width="1.2" stroke-miterlimit="10" stroke-linecap="round" stroke-linejoin="round"/>
<path d="M3.58499 6.22498V9.52499" stroke="#30345E" stroke-width="1.2" stroke-miterlimit="10" stroke-linecap="round" stroke-linejoin="round"/>
<path d="M12.1663 6.22522V9.52524" stroke="#30345E" stroke-width="1.2" stroke-miterlimit="10" stroke-linecap="round" stroke-linejoin="round"/>
</svg>
