<svg xmlns="http://www.w3.org/2000/svg" width="104" height="59" fill="none" viewBox="0 0 104 59"><g clip-path="url(#clip0_1350_55328)"><path fill="#3E7D29" d="M99.963.005c1.159-.066 2.567 3.81 3.57 9.205h-6.06c.005-1.15.107-2.875.608-4.897.445-1.8 1.05-4.261 1.882-4.308Z"/></g><g clip-path="url(#clip1_1350_55328)"><path fill="#3E7D29" d="M3.83.005C2.67-.061 1.262 3.815.26 9.21h6.059a20.76 20.76 0 0 0-.607-4.897C5.266 2.513 4.662.052 3.83.005Z"/></g><path fill="url(#paint0_linear_1350_55328)" d="M99.926.006A6.344 6.344 0 0 0 99.623 0c-.101 0-.199 0-.293.005H4.462a8.791 8.791 0 0 0-.596.001c.408.796.694 1.467.873 1.915C6.044 5.18 6.325 7.965 6.321 9.295l-.005 1.71h.005v30.766l45.574 16.687c.003 0 45.573-16.687 45.573-16.687V11.007h.005l-.005-1.71c-.004-1.33.277-4.115 1.582-7.374.18-.45.466-1.12.873-1.915l.003-.002Z"/><g fill="#fff" filter="url(#filter0_dd_1350_55328)"><path d="m17.946 24.142-2.54-8.728h2.331l1.317 5.719h.073l1.504-5.719h1.9l1.505 5.732h.072l1.321-5.732h2.327l-2.536 8.728h-2.032l-1.573-5.293h-.068l-1.572 5.293h-2.029ZM29.566 24.142h-2.267l2.944-8.728h2.809l2.944 8.728H33.73l-2.05-6.529h-.068l-2.045 6.529Zm-.303-3.435h4.739v1.602h-4.739v-1.602ZM36.936 24.142v-8.728h3.605c.653 0 1.217.118 1.692.354.477.233.845.568 1.103 1.006.259.434.388.95.388 1.546 0 .605-.132 1.12-.396 1.543a2.53 2.53 0 0 1-1.125.963c-.486.219-1.061.328-1.726.328h-2.28v-1.662h1.888c.318 0 .584-.04.797-.123.216-.085.38-.213.49-.384.11-.173.166-.395.166-.665s-.055-.492-.166-.669a1 1 0 0 0-.49-.4 2.057 2.057 0 0 0-.797-.137h-1.04v7.027h-2.11Zm4.913-3.99 2.174 3.99H41.72l-2.13-3.99h2.258ZM44.881 24.142v-8.728h3.605c.654 0 1.218.118 1.692.354.477.233.845.568 1.104 1.006.258.434.388.95.388 1.546 0 .605-.133 1.12-.397 1.543a2.53 2.53 0 0 1-1.125.963c-.486.219-1.06.328-1.726.328h-2.28v-1.662h1.888c.319 0 .584-.04.797-.123.216-.085.38-.213.49-.384.111-.173.166-.395.166-.665s-.055-.492-.166-.669a1 1 0 0 0-.49-.4 2.057 2.057 0 0 0-.797-.137h-1.04v7.027h-2.109Zm4.913-3.99 2.174 3.99h-2.301l-2.131-3.99h2.258ZM54.714 24.142h-2.267l2.945-8.728H58.2l2.945 8.728h-2.267l-2.05-6.529h-.068l-2.046 6.529Zm-.302-3.435h4.738v1.602h-4.738v-1.602ZM69.512 15.414v8.728h-1.79l-3.473-5.037h-.055v5.037h-2.11v-8.728H63.9l3.434 5.029h.073v-5.029h2.105ZM70.553 17.127v-1.713h7.376v1.713h-2.646v7.015h-2.08v-7.015h-2.65ZM78.525 15.414h2.356l1.845 3.652h.077l1.845-3.652h2.357l-3.192 5.813v2.915h-2.097v-2.915l-3.191-5.813ZM21.474 34.142h-2.267l2.945-8.728h2.808l2.944 8.727h-2.267l-2.05-6.528h-.067l-2.046 6.529Zm-.302-3.435h4.738v1.602h-4.738v-1.602ZM29.654 25.414l1.951 6.392h.073l1.952-6.392h2.36l-2.944 8.727h-2.808l-2.945-8.727h2.36ZM37.517 34.142H35.25l2.944-8.728h2.809l2.944 8.727H41.68l-2.05-6.528h-.068l-2.045 6.529Zm-.303-3.435h4.74v1.602h-4.74v-1.602ZM46.996 25.414v8.727h-2.109v-8.727h2.11ZM48.32 34.142v-8.728h2.11v7.014h3.63v1.714h-5.74ZM57.158 34.142H54.89l2.944-8.728h2.808l2.945 8.727h-2.267l-2.05-6.528h-.068l-2.045 6.529Zm-.303-3.435h4.739v1.602h-4.739v-1.602ZM64.528 34.142v-8.728h3.639c.653 0 1.2.092 1.64.277.444.185.776.443.998.776.224.332.336.717.336 1.155 0 .332-.07.629-.209.89-.139.259-.33.473-.575.644a2.3 2.3 0 0 1-.848.358v.085c.352.017.678.112.976.285.301.174.543.415.725.725.181.307.272.67.272 1.09 0 .47-.12.888-.358 1.258-.238.366-.584.656-1.035.87-.452.21-1 .315-1.645.315h-3.916Zm2.109-1.7h1.304c.457 0 .794-.087 1.01-.26.219-.174.328-.416.328-.725a1.04 1.04 0 0 0-.158-.58 1.015 1.015 0 0 0-.447-.379 1.62 1.62 0 0 0-.695-.136h-1.342v2.08Zm0-3.44h1.168c.23 0 .434-.038.613-.115a.942.942 0 0 0 .418-.332.885.885 0 0 0 .153-.524c0-.293-.103-.523-.31-.69-.208-.168-.488-.252-.84-.252h-1.202v1.913ZM72.496 34.142v-8.728h2.11v7.014h3.63v1.714h-5.74ZM79.328 34.142v-8.728h6.086v1.713h-3.976v1.79h3.665v1.717h-3.665v1.794h3.976v1.714h-6.086Z"/></g><defs><clipPath id="clip0_1350_55328"><path fill="#fff" d="M97 0h7v4h-7z"/></clipPath><clipPath id="clip1_1350_55328"><path fill="#fff" d="M0 0h6v4H0z"/></clipPath><linearGradient id="paint0_linear_1350_55328" x1="51.883" x2="51.334" y1="2.242" y2="106.804" gradientUnits="userSpaceOnUse"><stop stop-color="#69B21B"/><stop offset="1" stop-color="#1D664A"/></linearGradient><filter id="filter0_dd_1350_55328" width="77.598" height="24.727" x="12.406" y="13.414" color-interpolation-filters="sRGB" filterUnits="userSpaceOnUse"><feFlood flood-opacity="0" result="BackgroundImageFix"/><feColorMatrix in="SourceAlpha" result="hardAlpha" type="matrix" values="0 0 0 0 0 0 0 0 0 0 0 0 0 0 0 0 0 0 127 0"/><feOffset dy="1"/><feGaussianBlur stdDeviation="1.5"/><feColorMatrix type="matrix" values="0 0 0 0 0 0 0 0 0 0 0 0 0 0 0 0 0 0 0.1 0"/><feBlend in2="BackgroundImageFix" mode="normal" result="effect1_dropShadow_1350_55328"/><feColorMatrix in="SourceAlpha" result="hardAlpha" type="matrix" values="0 0 0 0 0 0 0 0 0 0 0 0 0 0 0 0 0 0 127 0"/><feOffset dy="1"/><feGaussianBlur stdDeviation="1"/><feColorMatrix type="matrix" values="0 0 0 0 0 0 0 0 0 0 0 0 0 0 0 0 0 0 0.06 0"/><feBlend in2="effect1_dropShadow_1350_55328" mode="normal" result="effect2_dropShadow_1350_55328"/><feBlend in="SourceGraphic" in2="effect2_dropShadow_1350_55328" mode="normal" result="shape"/></filter></defs></svg>